<svg width="720" height="150" viewBox="0 0 720 150" fill="none" xmlns="http://www.w3.org/2000/svg">
<g clip-path="url(#clip0_1248_5)">
<path d="M403.918 85.2132L392.222 68.4579C391.731 68.5124 390.995 68.5397 390.014 68.5397H377.092V85.2132H366.459V28H390.014C394.976 28 399.283 28.8173 402.936 30.452C406.644 32.0867 409.479 34.4297 411.442 37.481C413.405 40.5324 414.386 44.1559 414.386 48.3516C414.386 52.6562 413.323 56.3614 411.196 59.4673C409.125 62.5731 406.126 64.8889 402.2 66.4146L415.368 85.2132H403.918ZM403.672 48.3516C403.672 44.7008 402.473 41.8946 400.074 39.933C397.674 37.9715 394.158 36.9907 389.523 36.9907H377.092V59.7942H389.523C394.158 59.7942 397.674 58.8134 400.074 56.8518C402.473 54.8357 403.672 52.0023 403.672 48.3516Z" fill="#57C4E5"/>
<path d="M114.537 28H125.179V76.2226H155.14V85.2132H114.537V28Z" fill="#FE5E41"/>
<path d="M109.008 33.5367H119.703V82.124H149.816V91.1826H109.008V33.5367Z" fill="#1A1A1A"/>
<path d="M179.075 91.4915C173.604 91.4915 169.346 89.9062 166.302 86.7357C163.299 83.5651 161.798 78.9329 161.798 72.8389V47.9482H164.945V72.7154C164.945 78.027 166.158 82.0005 168.585 84.6357C171.012 87.271 174.53 88.5886 179.137 88.5886C183.703 88.5886 187.2 87.271 189.627 84.6357C192.054 82.0005 193.268 78.027 193.268 72.7154V47.9482H196.414V72.8389C196.414 78.9329 194.892 83.5651 191.848 86.7357C188.804 89.9062 184.546 91.4915 179.075 91.4915Z" fill="#1A1A1A"/>
<path d="M227.019 69.8742L217.331 79.8182V91.1826H214.184V47.9482H217.331V75.7418L244.296 47.9482H248.122L229.117 67.589L249.418 91.1826H245.592L227.019 69.8742Z" fill="#1A1A1A"/>
<path d="M285.747 79.0152H260.695L255.203 91.1826H251.809L271.679 47.9482H274.826L294.695 91.1826H291.301L285.747 79.0152ZM284.575 76.3594L273.221 51.407L261.929 76.3594H284.575Z" fill="#1A1A1A"/>
<path d="M316.975 91.4915C313.808 91.4915 310.784 90.9562 307.905 89.8856C305.066 88.7739 302.845 87.3533 301.24 85.6239L302.66 83.2769C304.182 84.8828 306.218 86.2004 308.769 87.2298C311.36 88.218 314.075 88.7121 316.914 88.7121C321.027 88.7121 324.133 87.9298 326.231 86.3651C328.329 84.8004 329.378 82.7622 329.378 80.2505C329.378 78.3153 328.823 76.7712 327.712 75.6182C326.601 74.4653 325.223 73.5801 323.578 72.9624C321.932 72.3448 319.711 71.7066 316.914 71.0478C313.746 70.2654 311.196 69.5037 309.262 68.7625C307.37 68.0213 305.745 66.889 304.387 65.3655C303.071 63.8008 302.413 61.7215 302.413 59.1274C302.413 57.0274 302.968 55.1128 304.079 53.3834C305.19 51.6128 306.876 50.2129 309.139 49.1835C311.442 48.1541 314.301 47.6394 317.716 47.6394C320.102 47.6394 322.447 47.9894 324.75 48.6894C327.054 49.3894 329.049 50.3364 330.736 51.5305L329.563 54.0628C327.836 52.8687 325.923 51.9628 323.825 51.3452C321.768 50.7276 319.732 50.4188 317.716 50.4188C313.726 50.4188 310.702 51.2217 308.645 52.8275C306.588 54.4334 305.56 56.5127 305.56 59.0656C305.56 61.0009 306.115 62.545 307.226 63.6979C308.337 64.8508 309.715 65.7361 311.36 66.3537C313.006 66.9714 315.248 67.6302 318.086 68.3302C321.254 69.1125 323.784 69.8742 325.676 70.6154C327.568 71.3566 329.173 72.4889 330.489 74.0124C331.846 75.4947 332.525 77.5123 332.525 80.0652C332.525 82.1652 331.949 84.0798 330.797 85.8092C329.687 87.5386 327.959 88.918 325.614 89.9474C323.269 90.9768 320.39 91.4915 316.975 91.4915Z" fill="#1A1A1A"/>
<path d="M398.622 91.1826L386.857 74.3006C386.363 74.3555 385.623 74.383 384.636 74.383H371.636V91.1826H360.941V33.5367H384.636C389.627 33.5367 393.96 34.3603 397.635 36.0073C401.365 37.6543 404.217 40.015 406.191 43.0895C408.166 46.1639 409.153 49.8148 409.153 54.0422C409.153 58.3794 408.084 62.1126 405.945 65.242C403.86 68.3713 400.844 70.7046 396.894 72.2418L410.141 91.1826H398.622ZM398.375 54.0422C398.375 50.3639 397.169 47.5365 394.755 45.56C392.342 43.5836 388.804 42.5954 384.142 42.5954H371.636V65.5714H384.142C388.804 65.5714 392.342 64.5832 394.755 62.6067C397.169 60.5754 398.375 57.7206 398.375 54.0422Z" fill="#1A1A1A"/>
<path d="M441.935 91.4915C436.464 91.4915 432.206 89.9062 429.162 86.7357C426.159 83.5651 424.657 78.9329 424.657 72.8389V47.9482H427.804V72.7154C427.804 78.027 429.018 82.0005 431.445 84.6357C433.872 87.271 437.389 88.5886 441.997 88.5886C446.563 88.5886 450.06 87.271 452.487 84.6357C454.914 82.0005 456.127 78.027 456.127 72.7154V47.9482H459.274V72.8389C459.274 78.9329 457.752 83.5651 454.708 86.7357C451.664 89.9062 447.406 91.4915 441.935 91.4915Z" fill="#1A1A1A"/>
<path d="M512.216 47.9482V91.1826H509.624L480.191 53.6305V91.1826H477.044V47.9482H479.697L509.069 85.5004V47.9482H512.216Z" fill="#1A1A1A"/>
<path d="M561.238 69.7507H564.262V85.9327C562.369 87.7445 560.066 89.1239 557.351 90.0709C554.677 91.0179 551.838 91.4915 548.835 91.4915C544.557 91.4915 540.69 90.5444 537.235 88.6503C533.82 86.7563 531.126 84.1416 529.151 80.8064C527.218 77.4712 526.251 73.7242 526.251 69.5654C526.251 65.4067 527.218 61.6597 529.151 58.3245C531.126 54.9893 533.82 52.3746 537.235 50.4805C540.69 48.5864 544.578 47.6394 548.897 47.6394C552.065 47.6394 554.965 48.1541 557.598 49.1835C560.271 50.1717 562.555 51.6334 564.447 53.5687L562.472 55.6686C560.662 53.8569 558.626 52.5599 556.363 51.7776C554.142 50.954 551.674 50.5423 548.959 50.5423C545.256 50.5423 541.904 51.3658 538.901 53.0128C535.939 54.6598 533.615 56.9451 531.928 59.8686C530.241 62.7509 529.398 65.9831 529.398 69.5654C529.398 73.1065 530.241 76.3388 531.928 79.2623C533.656 82.1446 536.001 84.4298 538.962 86.118C541.924 87.7651 545.256 88.5886 548.959 88.5886C553.895 88.5886 557.988 87.271 561.238 84.6357V69.7507Z" fill="#1A1A1A"/>
<path d="M611 88.3415V91.1826H581.196V47.9482H610.074V50.7893H584.343V67.8361H607.359V70.6154H584.343V88.3415H611Z" fill="#1A1A1A"/>
<path d="M133.7 97.6163L123.506 121.035H119.228L109 97.6163H113.713L121.501 115.682L129.355 97.6163H133.7Z" fill="#1A1A1A"/>
<path d="M155.142 119.496V121.035H138.998V97.6163H154.641V99.1552H140.703V108.389H153.17V109.894H140.703V119.496H155.142Z" fill="#1A1A1A"/>
<path d="M179.005 121.035L173.423 113.206C172.599 113.318 171.841 113.374 171.15 113.374H164.466V121.035H162.761V97.6163H171.15C174.092 97.6163 176.398 98.3188 178.069 99.7239C179.74 101.107 180.576 103.036 180.576 105.512C180.576 107.363 180.097 108.924 179.139 110.195C178.203 111.444 176.855 112.325 175.094 112.838L180.944 121.035H179.005ZM171.15 111.868C173.646 111.868 175.551 111.322 176.866 110.229C178.181 109.114 178.838 107.541 178.838 105.512C178.838 103.482 178.181 101.921 176.866 100.828C175.551 99.7128 173.646 99.1552 171.15 99.1552H164.466V111.868H171.15Z" fill="#1A1A1A"/>
<path d="M202.46 115.615H190.761L188.455 121.035H183.976L194.505 97.6163H198.783L209.345 121.035H204.799L202.46 115.615ZM201.022 112.203L196.61 101.965L192.232 112.203H201.022Z" fill="#1A1A1A"/>
<path d="M233.712 97.6163V121.035H232.308L216.365 100.694V121.035H214.66V97.6163H216.097L232.007 117.957V97.6163H233.712Z" fill="#1A1A1A"/>
<path d="M249.436 121.202C247.72 121.202 246.083 120.912 244.523 120.332C242.985 119.73 241.782 118.961 240.913 118.024L241.682 116.753C242.506 117.622 243.609 118.336 244.991 118.894C246.395 119.429 247.865 119.697 249.403 119.697C251.631 119.697 253.313 119.273 254.45 118.425C255.586 117.578 256.154 116.474 256.154 115.113C256.154 114.065 255.853 113.229 255.252 112.604C254.65 111.98 253.904 111.5 253.012 111.166C252.121 110.831 250.918 110.485 249.403 110.129C247.687 109.705 246.305 109.292 245.258 108.891C244.233 108.489 243.353 107.876 242.618 107.051C241.905 106.203 241.548 105.077 241.548 103.672C241.548 102.534 241.849 101.497 242.45 100.56C243.052 99.6013 243.966 98.843 245.191 98.2854C246.439 97.7278 247.988 97.449 249.837 97.449C251.13 97.449 252.4 97.6386 253.648 98.0177C254.895 98.3969 255.976 98.9099 256.89 99.5567L256.255 100.928C255.319 100.282 254.283 99.7909 253.146 99.4563C252.032 99.1218 250.929 98.9545 249.837 98.9545C247.676 98.9545 246.038 99.3894 244.924 100.259C243.81 101.129 243.253 102.255 243.253 103.638C243.253 104.686 243.553 105.523 244.155 106.147C244.757 106.772 245.503 107.251 246.395 107.586C247.286 107.92 248.5 108.277 250.038 108.656C251.753 109.08 253.124 109.493 254.149 109.894C255.174 110.296 256.043 110.909 256.756 111.734C257.491 112.537 257.859 113.63 257.859 115.013C257.859 116.15 257.547 117.188 256.923 118.124C256.321 119.061 255.386 119.808 254.115 120.366C252.845 120.923 251.286 121.202 249.436 121.202Z" fill="#1A1A1A"/>
<path d="M269.21 99.1552H260.787V97.6163H279.337V99.1552H270.915V121.035H269.21V99.1552Z" fill="#1A1A1A"/>
<path d="M298.266 114.444H284.696L281.721 121.035H279.883L290.645 97.6163H292.35L303.113 121.035H301.274L298.266 114.444ZM297.631 113.006L291.481 99.4898L285.364 113.006H297.631Z" fill="#1A1A1A"/>
<path d="M308.764 97.6163H310.468V119.496H323.938V121.035H308.764V97.6163Z" fill="#1A1A1A"/>
<path d="M332.011 99.1552H323.588V97.6163H342.139V99.1552H333.716V121.035H332.011V99.1552Z" fill="#1A1A1A"/>
<path d="M356.471 121.202C353.507 121.202 351.201 120.344 349.552 118.626C347.926 116.909 347.112 114.4 347.112 111.099V97.6163H348.817V111.032C348.817 113.909 349.474 116.061 350.789 117.489C352.104 118.916 354.009 119.63 356.504 119.63C358.978 119.63 360.872 118.916 362.186 117.489C363.501 116.061 364.158 113.909 364.158 111.032V97.6163H365.863V111.099C365.863 114.4 365.039 116.909 363.39 118.626C361.741 120.344 359.435 121.202 356.471 121.202Z" fill="#1A1A1A"/>
<path d="M394.272 97.6163V121.035H392.869L376.925 100.694V121.035H375.221V97.6163H376.658L392.568 117.957V97.6163H394.272Z" fill="#1A1A1A"/>
<path d="M420.559 109.426H422.197V118.191C421.172 119.173 419.924 119.92 418.453 120.433C417.005 120.946 415.467 121.202 413.841 121.202C411.523 121.202 409.429 120.689 407.557 119.663C405.707 118.637 404.248 117.221 403.178 115.414C402.131 113.608 401.607 111.578 401.607 109.326C401.607 107.073 402.131 105.043 403.178 103.237C404.248 101.43 405.707 100.014 407.557 98.9879C409.429 97.962 411.534 97.449 413.874 97.449C415.59 97.449 417.161 97.7278 418.587 98.2854C420.035 98.8207 421.272 99.6124 422.297 100.661L421.227 101.798C420.247 100.817 419.144 100.114 417.918 99.6905C416.715 99.2444 415.378 99.0214 413.907 99.0214C411.902 99.0214 410.086 99.4675 408.459 100.36C406.855 101.252 405.596 102.49 404.682 104.073C403.769 105.634 403.312 107.385 403.312 109.326C403.312 111.244 403.769 112.995 404.682 114.578C405.618 116.139 406.888 117.377 408.493 118.292C410.097 119.184 411.902 119.63 413.907 119.63C416.581 119.63 418.798 118.916 420.559 117.489V109.426Z" fill="#1A1A1A"/>
<path d="M437.252 121.202C435.536 121.202 433.898 120.912 432.339 120.332C430.801 119.73 429.598 118.961 428.729 118.024L429.498 116.753C430.322 117.622 431.425 118.336 432.807 118.894C434.21 119.429 435.681 119.697 437.218 119.697C439.447 119.697 441.129 119.273 442.265 118.425C443.402 117.578 443.97 116.474 443.97 115.113C443.97 114.065 443.669 113.229 443.068 112.604C442.466 111.98 441.72 111.5 440.828 111.166C439.937 110.831 438.734 110.485 437.218 110.129C435.503 109.705 434.121 109.292 433.074 108.891C432.049 108.489 431.169 107.876 430.433 107.051C429.72 106.203 429.364 105.077 429.364 103.672C429.364 102.534 429.665 101.497 430.266 100.56C430.868 99.6013 431.782 98.843 433.007 98.2854C434.255 97.7278 435.804 97.449 437.653 97.449C438.945 97.449 440.216 97.6386 441.463 98.0177C442.711 98.3969 443.792 98.9099 444.705 99.5567L444.07 100.928C443.135 100.282 442.098 99.7909 440.962 99.4563C439.848 99.1218 438.745 98.9545 437.653 98.9545C435.492 98.9545 433.854 99.3894 432.74 100.259C431.626 101.129 431.068 102.255 431.068 103.638C431.068 104.686 431.369 105.523 431.971 106.147C432.573 106.772 433.319 107.251 434.21 107.586C435.102 107.92 436.316 108.277 437.854 108.656C439.569 109.08 440.94 109.493 441.965 109.894C442.99 110.296 443.859 110.909 444.572 111.734C445.307 112.537 445.675 113.63 445.675 115.013C445.675 116.15 445.363 117.188 444.739 118.124C444.137 119.061 443.201 119.808 441.931 120.366C440.661 120.923 439.101 121.202 437.252 121.202Z" fill="#1A1A1A"/>
<path d="M456.684 101.296H448.929V97.6163H468.783V101.296H461.029V121.035H456.684V101.296Z" fill="#1A1A1A"/>
<path d="M490.528 119.496V121.035H474.384V97.6163H490.026V99.1552H476.088V108.389H488.556V109.894H476.088V119.496H490.528Z" fill="#1A1A1A"/>
<path d="M507.909 121.202C505.614 121.202 503.542 120.689 501.692 119.663C499.865 118.637 498.417 117.221 497.347 115.414C496.3 113.608 495.776 111.578 495.776 109.326C495.776 107.073 496.3 105.043 497.347 103.237C498.417 101.43 499.865 100.014 501.692 98.9879C503.542 97.962 505.614 97.449 507.909 97.449C509.603 97.449 511.163 97.7278 512.589 98.2854C514.015 98.8207 515.229 99.6236 516.232 100.694L515.162 101.798C513.291 99.947 510.895 99.0214 507.976 99.0214C506.015 99.0214 504.233 99.4675 502.628 100.36C501.024 101.252 499.765 102.49 498.851 104.073C497.938 105.634 497.481 107.385 497.481 109.326C497.481 111.266 497.938 113.028 498.851 114.612C499.765 116.173 501.024 117.399 502.628 118.292C504.233 119.184 506.015 119.63 507.976 119.63C510.873 119.63 513.268 118.693 515.162 116.82L516.232 117.924C515.229 118.994 514.004 119.808 512.555 120.366C511.129 120.923 509.58 121.202 507.909 121.202Z" fill="#1A1A1A"/>
<path d="M542.397 97.6163V121.035H540.692V109.894H525.05V121.035H523.345V97.6163H525.05V108.389H540.692V97.6163H542.397Z" fill="#1A1A1A"/>
<path d="M571.023 97.6163V121.035H569.619L553.676 100.694V121.035H551.971V97.6163H553.408L569.318 117.957V97.6163H571.023Z" fill="#1A1A1A"/>
<path d="M580.597 97.6163H582.302V121.035H580.597V97.6163Z" fill="#1A1A1A"/>
<path d="M598.811 109.493L593.563 114.879V121.035H591.858V97.6163H593.563V112.671L608.169 97.6163H610.242L599.947 108.255L610.943 121.035H608.871L598.811 109.493Z" fill="#1A1A1A"/>
<path d="M-0.000137329 67.5551L-82.4446 149.999L-0.000137329 91.1106L82.4443 149.999L-0.000137329 67.5551Z" fill="#57C4E5"/>
<path d="M0.000595093 143.456H-75.9006L0.000595093 131.679L75.9018 143.456H0.000595093Z" fill="#FE5E41"/>
<path fill-rule="evenodd" clip-rule="evenodd" d="M7.62939e-06 44L106 150L7.62939e-06 256L-106 150L7.62939e-06 44ZM-75.9007 143.457L0.000541687 67.5555L75.9018 143.457H-75.9007ZM-75.9007 156.543L0.000541687 232.444L75.9018 156.543H-75.9007Z" fill="#1A1A1A"/>
<path d="M720 82.4449L637.556 0.00050354L720 58.8894L802.445 0.00050354L720 82.4449Z" fill="#FE5E41"/>
<path d="M720 18.321L644.099 6.54327H720H795.902L720 18.321Z" fill="#57C4E5"/>
<path fill-rule="evenodd" clip-rule="evenodd" d="M720 -106L826 7.62939e-06L720 106L614 7.62939e-06L720 -106ZM644.099 -6.54326L720 -82.4445L795.902 -6.54326H644.099ZM644.099 6.5431L720 82.4443L795.902 6.5431H644.099Z" fill="#1A1A1A"/>
</g>
<defs>
<clipPath id="clip0_1248_5">
<rect width="720" height="150" fill="white"/>
</clipPath>
</defs>
</svg>
