<?xml version="1.0" encoding="UTF-8" standalone="no"?>
<!-- Created with Inkscape (http://www.inkscape.org/) -->

<svg
   width="218mm"
   height="58mm"
   viewBox="0 0 218 58"
   version="1.1"
   id="svg152517"
   xmlns="http://www.w3.org/2000/svg"
   xmlns:svg="http://www.w3.org/2000/svg">
  <defs
     id="defs152514" />
  <g
     id="layer3" />
  <rect
     style="fill:#4d4d4d;fill-opacity:1;stroke:#b70505;stroke-width:0;stroke-linecap:square;stroke-linejoin:round;stroke-miterlimit:10;stroke-dasharray:none;stroke-opacity:0;paint-order:fill markers stroke"
     id="rect75606-8-3-5"
     width="2.5376124"
     height="41.518417"
     x="44.317245"
     y="8.2651482" />
  <path
     d="M 72.953553,30.845562 H 67.524086 L 58.75977,15.604471 h -0.124023 q 0.261827,4.037649 0.261827,5.760196 v 9.480895 H 55.080411 V 10.698659 h 5.388125 l 8.750536,15.089507 h 0.09646 q -0.206706,-3.927406 -0.206706,-5.55349 v -9.536017 h 3.844724 z"
     style="font-weight:bold;font-size:28.2222px;font-family:OpenSans-SemiBold, 'Open Sans';-inkscape-font-specification:'OpenSans-SemiBold, Open Sans Bold';fill:#4d4d4d;stroke-width:0.185267"
     id="path927" />
  <path
     d="M 89.627802,30.845562 H 78.02473 V 10.698659 h 11.603072 v 3.500214 h -7.331157 v 4.4235 h 6.821284 v 3.500214 h -6.821284 v 5.1952 h 7.331157 z"
     style="font-weight:bold;font-size:28.2222px;font-family:OpenSans-SemiBold, 'Open Sans';-inkscape-font-specification:'OpenSans-SemiBold, Open Sans Bold';fill:#4d4d4d;stroke-width:0.185267"
     id="path929" />
  <path
     d="m 93.830815,10.698659 h 6.270065 q 4.2857,0 6.21495,1.226453 1.94303,1.212673 1.94303,3.872285 0,1.805228 -0.85438,2.962779 -0.8406,1.157552 -2.2462,1.391818 v 0.137804 q 1.91547,0.427191 2.75607,1.598523 0.85439,1.171331 0.85439,3.114364 0,2.756074 -1.99816,4.299475 -1.98437,1.543402 -5.4019,1.543402 h -7.537865 z m 4.271915,7.978835 h 2.48047 q 1.73632,0 2.50802,-0.537434 0.78549,-0.537435 0.78549,-1.777668 0,-1.157551 -0.85439,-1.653645 -0.8406,-0.509874 -2.67339,-0.509874 h -2.2462 z m 0,3.389971 v 5.250322 h 2.78364 q 1.76388,0 2.60449,-0.675238 0.8406,-0.675238 0.8406,-2.067056 0,-2.508028 -3.5829,-2.508028 z"
     style="font-weight:bold;font-size:28.2222px;font-family:OpenSans-SemiBold, 'Open Sans';-inkscape-font-specification:'OpenSans-SemiBold, Open Sans Bold';fill:#4d4d4d;stroke-width:0.185267"
     id="path931" />
  <path
     d="M 129.19125,10.698659 V 23.73489 q 0,2.232421 -1.00597,3.913626 -0.99218,1.681205 -2.8801,2.576929 -1.88791,0.895724 -4.46484,0.895724 -3.88606,0 -6.0358,-1.984373 -2.14974,-1.998154 -2.14974,-5.457027 v -12.98111 h 4.25814 v 12.333432 q 0,2.328883 0.93706,3.417533 0.93707,1.088649 3.10059,1.088649 2.09461,0 3.03168,-1.088649 0.95084,-1.10243 0.95084,-3.445093 V 10.698659 Z"
     style="font-weight:bold;font-size:28.2222px;font-family:OpenSans-SemiBold, 'Open Sans';-inkscape-font-specification:'OpenSans-SemiBold, Open Sans Bold';fill:#4d4d4d;stroke-width:0.185267"
     id="path933" />
  <path
     d="m 142.68223,13.964607 q -2.41157,0 -3.73448,1.819009 -1.32292,1.805229 -1.32292,5.043616 0,6.738602 5.0574,6.738602 2.12217,0 5.14007,-1.061089 v 3.582897 q -2.48046,1.033527 -5.5397,1.033527 -4.39594,0 -6.72483,-2.659611 -2.32888,-2.673392 -2.32888,-7.661887 0,-3.141924 1.14377,-5.498368 1.14377,-2.370224 3.27973,-3.624237 2.14974,-1.267795 5.02984,-1.267795 2.93522,0 5.898,1.419379 l -1.37804,3.472653 q -1.12999,-0.537434 -2.27376,-0.937065 -1.14377,-0.399631 -2.2462,-0.399631 z"
     style="font-weight:bold;font-size:28.2222px;font-family:OpenSans-SemiBold, 'Open Sans';-inkscape-font-specification:'OpenSans-SemiBold, Open Sans Bold';fill:#4d4d4d;stroke-width:0.185267"
     id="path935" />
  <path
     d="m 164.44144,30.845562 -1.46072,-4.795569 h -7.34494 l -1.46072,4.795569 h -4.60264 l 7.11067,-20.229585 h 5.22276 l 7.13823,20.229585 z m -2.48047,-8.378466 q -2.02571,-6.518115 -2.28754,-7.372498 -0.24805,-0.854383 -0.35829,-1.350477 -0.45475,1.763888 -2.60449,8.722975 z"
     style="font-weight:bold;font-size:28.2222px;font-family:OpenSans-SemiBold, 'Open Sans';-inkscape-font-specification:'OpenSans-SemiBold, Open Sans Bold';fill:#4d4d4d;stroke-width:0.185267"
     id="path937" />
  <path
     d="m 183.47213,25.250731 q 0,2.728514 -1.97059,4.299476 -1.95681,1.570962 -5.45703,1.570962 -3.22461,0 -5.70507,-1.212672 V 25.93975 q 2.03949,0.909504 3.44509,1.281574 1.41938,0.37207 2.59071,0.37207 1.4056,0 2.14974,-0.537434 0.75792,-0.537435 0.75792,-1.598523 0,-0.592556 -0.33073,-1.047308 -0.33073,-0.468533 -0.97841,-0.895725 -0.63389,-0.427191 -2.60449,-1.364256 -1.84657,-0.868164 -2.76985,-1.667425 -0.92329,-0.799262 -1.4745,-1.86035 -0.55122,-1.061089 -0.55122,-2.480467 0,-2.673392 1.80523,-4.203013 1.81901,-1.529622 5.01606,-1.529622 1.57096,0 2.99034,0.37207 1.43316,0.37207 2.99034,1.047309 l -1.37804,3.321069 q -1.6123,-0.661458 -2.67339,-0.923285 -1.04731,-0.261827 -2.06706,-0.261827 -1.21267,0 -1.86035,0.564995 -0.64767,0.564996 -0.64767,1.4745 0,0.564995 0.26182,0.992187 0.26183,0.413411 0.82683,0.813042 0.57877,0.38585 2.71473,1.405598 2.82497,1.350476 3.87228,2.714733 1.04731,1.350476 1.04731,3.321069 z"
     style="font-weight:bold;font-size:28.2222px;font-family:OpenSans-SemiBold, 'Open Sans';-inkscape-font-specification:'OpenSans-SemiBold, Open Sans Bold';fill:#4d4d4d;stroke-width:0.185267"
     id="path939" />
  <path
     d="m 194.89606,30.845562 h -4.27192 V 14.253995 h -5.4708 v -3.555336 h 15.21353 v 3.555336 h -5.47081 z"
     style="font-weight:bold;font-size:28.2222px;font-family:OpenSans-SemiBold, 'Open Sans';-inkscape-font-specification:'OpenSans-SemiBold, Open Sans Bold';fill:#4d4d4d;stroke-width:0.185267"
     id="path941" />
  <g
     aria-label="Live.Production.Solutions"
     id="text894-4-1-1-5"
     style="font-weight:600;font-size:12.7px;font-family:OpenSans-SemiBold, 'Open Sans';fill:#4d4d4d;stroke-width:0.185267"
     class="cls-8">
    <path
       d="m 55.080478,48.193371 v -9.066113 h 1.48208 v 7.794873 h 3.838525 v 1.27124 z"
       id="path944" />
    <path
       d="m 63.266025,48.193371 h -1.457276 v -6.858496 h 1.457276 z m -1.544092,-8.67544 q 0,-0.390673 0.21084,-0.601513 0.217041,-0.21084 0.613916,-0.21084 0.384472,0 0.595312,0.21084 0.217041,0.21084 0.217041,0.601513 0,0.372071 -0.217041,0.589112 -0.21084,0.21084 -0.595312,0.21084 -0.396875,0 -0.613916,-0.21084 -0.21084,-0.217041 -0.21084,-0.589112 z"
       id="path946" />
    <path
       d="m 66.912313,48.193371 -2.604492,-6.858496 h 1.537891 l 1.395264,3.987353 q 0.359667,1.00459 0.434082,1.624707 h 0.04961 q 0.05581,-0.446484 0.434082,-1.624707 l 1.395264,-3.987353 h 1.550293 l -2.616895,6.858496 z"
       id="path948" />
    <path
       d="m 75.141268,48.317394 q -1.599902,0 -2.505273,-0.930176 -0.89917,-0.936376 -0.89917,-2.573486 0,-1.680517 0.837158,-2.641699 0.837158,-0.961182 2.300635,-0.961182 1.358056,0 2.145605,0.824756 0.787549,0.824756 0.787549,2.269629 v 0.787549 h -4.570264 q 0.03101,0.998389 0.539502,1.537891 0.508496,0.5333 1.432471,0.5333 0.607715,0 1.128613,-0.111621 0.5271,-0.117822 1.128614,-0.384472 v 1.184423 q -0.533301,0.254248 -1.079004,0.359668 -0.545703,0.10542 -1.246436,0.10542 z m -0.26665,-6.002734 q -0.694532,0 -1.116211,0.440283 -0.415479,0.440283 -0.496094,1.283643 h 3.112988 q -0.0124,-0.849561 -0.409277,-1.283643 -0.396875,-0.440283 -1.091406,-0.440283 z"
       id="path950" />
    <path
       d="m 79.246444,47.418224 q 0,-0.452685 0.235644,-0.694531 0.235645,-0.241846 0.682129,-0.241846 0.452686,0 0.68833,0.254248 0.235645,0.248047 0.235645,0.682129 0,0.440284 -0.241846,0.700733 -0.235644,0.254248 -0.682129,0.254248 -0.446484,0 -0.682129,-0.254248 -0.235644,-0.254248 -0.235644,-0.700733 z"
       id="path952" />
    <path
       d="m 89.112509,41.868176 q 0,1.420068 -0.930176,2.176611 -0.930175,0.756543 -2.6479,0.756543 h -0.942578 v 3.392041 h -1.48208 v -9.066113 h 2.610693 q 1.699121,0 2.542481,0.694531 0.84956,0.694531 0.84956,2.046387 z m -4.520654,1.686718 h 0.787549 q 1.141015,0 1.674316,-0.396875 0.533301,-0.396875 0.533301,-1.240234 0,-0.781348 -0.47749,-1.16582 -0.477491,-0.384473 -1.488282,-0.384473 h -1.029394 z"
       id="path954" />
    <path
       d="m 94.247079,41.210851 q 0.440284,0 0.725537,0.06201 L 94.82999,42.63092 q -0.310059,-0.07441 -0.644922,-0.07441 -0.874366,0 -1.420069,0.570507 -0.539502,0.570508 -0.539502,1.482081 v 3.584277 h -1.457275 v -6.858496 h 1.141016 l 0.192236,1.209228 h 0.07441 q 0.341064,-0.613916 0.886768,-0.973584 0.551904,-0.359668 1.184423,-0.359668 z"
       id="path956" />
    <path
       d="m 102.32721,44.75172 q 0,1.680518 -0.86197,2.623096 -0.86196,0.942578 -2.399849,0.942578 -0.961182,0 -1.699121,-0.434082 -0.73794,-0.434082 -1.134815,-1.246435 -0.396875,-0.812354 -0.396875,-1.885157 0,-1.668115 0.855762,-2.604492 0.855762,-0.936377 2.412256,-0.936377 1.488282,0 2.356442,0.961182 0.86817,0.95498 0.86817,2.579687 z m -4.991946,0 q 0,2.375049 1.754931,2.375049 1.736325,0 1.736325,-2.375049 0,-2.350244 -1.748727,-2.350244 -0.917773,0 -1.333252,0.607715 -0.409277,0.607715 -0.409277,1.742529 z"
       id="path958" />
    <path
       d="m 106.31456,48.317394 q -1.28364,0 -2.00298,-0.930176 -0.71934,-0.930175 -0.71934,-2.610693 0,-1.686719 0.72554,-2.623095 0.73174,-0.942579 2.02158,-0.942579 1.35186,0 2.05879,0.998389 h 0.0744 q -0.10542,-0.737939 -0.10542,-1.16582 v -2.499072 h 1.46347 v 9.649023 h -1.14101 l -0.25425,-0.89917 h -0.0682 q -0.70074,1.023193 -2.05259,1.023193 z m 0.39067,-1.178222 q 0.89917,0 1.30845,-0.502295 0.40928,-0.508496 0.42168,-1.643311 v -0.204638 q 0,-1.296045 -0.42168,-1.841749 -0.42168,-0.545703 -1.32085,-0.545703 -0.76895,0 -1.18442,0.626319 -0.41548,0.620117 -0.41548,1.773535 0,1.141015 0.40307,1.742529 0.40308,0.595313 1.20923,0.595313 z"
       id="path960" />
    <path
       d="m 116.75113,48.193371 -0.20464,-0.89917 h -0.0744 q -0.30386,0.47749 -0.86816,0.750342 -0.55811,0.272851 -1.27745,0.272851 -1.24643,0 -1.86035,-0.620117 -0.61391,-0.620117 -0.61391,-1.878955 v -4.483447 h 1.46967 v 4.229199 q 0,0.787549 0.32247,1.184424 0.32246,0.390674 1.01079,0.390674 0.91777,0 1.34565,-0.545704 0.43408,-0.551904 0.43408,-1.841748 v -3.416845 h 1.46348 v 6.858496 z"
       id="path962" />
    <path
       d="m 122.74146,48.317394 q -1.55649,0 -2.36884,-0.905371 -0.80616,-0.911572 -0.80616,-2.610693 0,-1.730127 0.84336,-2.660303 0.84956,-0.930176 2.44947,-0.930176 1.0852,0 1.95337,0.403077 l -0.44029,1.172021 q -0.92397,-0.359668 -1.52549,-0.359668 -1.77973,0 -1.77973,2.362647 0,1.153417 0.44028,1.736328 0.44649,0.576709 1.30225,0.576709 0.97358,0 1.84175,-0.483692 v 1.27124 q -0.39068,0.229444 -0.83716,0.328663 -0.44029,0.09922 -1.07281,0.09922 z"
       id="path964" />
    <path
       d="m 128.81861,47.139172 q 0.5333,0 1.0666,-0.167432 v 1.097607 q -0.24184,0.10542 -0.62632,0.173633 -0.37827,0.07441 -0.78754,0.07441 -2.0712,0 -2.0712,-2.182812 v -3.695899 h -0.93637 v -0.644921 l 1.00459,-0.533301 0.49609,-1.451074 h 0.89917 v 1.525488 h 1.95337 v 1.103808 h -1.95337 v 3.671094 q 0,0.5271 0.26045,0.781348 0.26665,0.248047 0.69453,0.248047 z"
       id="path966" />
    <path
       d="m 132.71295,48.193371 h -1.45728 v -6.858496 h 1.45728 z m -1.54409,-8.67544 q 0,-0.390673 0.21084,-0.601513 0.21704,-0.21084 0.61391,-0.21084 0.38447,0 0.59531,0.21084 0.21704,0.21084 0.21704,0.601513 0,0.372071 -0.21704,0.589112 -0.21084,0.21084 -0.59531,0.21084 -0.39687,0 -0.61391,-0.21084 -0.21084,-0.217041 -0.21084,-0.589112 z"
       id="path968" />
    <path
       d="m 140.87989,44.75172 q 0,1.680518 -0.86196,2.623096 -0.86196,0.942578 -2.39985,0.942578 -0.96119,0 -1.69913,-0.434082 -0.73794,-0.434082 -1.13481,-1.246435 -0.39687,-0.812354 -0.39687,-1.885157 0,-1.668115 0.85576,-2.604492 0.85576,-0.936377 2.41225,-0.936377 1.48828,0 2.35645,0.961182 0.86816,0.95498 0.86816,2.579687 z m -4.99194,0 q 0,2.375049 1.75493,2.375049 1.73633,0 1.73633,-2.375049 0,-2.350244 -1.74873,-2.350244 -0.91778,0 -1.33325,0.607715 -0.40928,0.607715 -0.40928,1.742529 z"
       id="path970" />
    <path
       d="m 148.58795,48.193371 h -1.46348 v -4.216797 q 0,-0.79375 -0.32246,-1.184424 -0.31626,-0.390674 -1.01079,-0.390674 -0.92397,0 -1.35185,0.545703 -0.42788,0.545704 -0.42788,1.829346 v 3.416846 h -1.45728 v -6.858496 h 1.14102 l 0.20463,0.89917 h 0.0744 q 0.31006,-0.489893 0.88056,-0.756543 0.57051,-0.266651 1.26504,-0.266651 2.46807,0 2.46807,2.511475 z"
       id="path972" />
    <path
       d="m 150.39869,47.418224 q 0,-0.452685 0.23565,-0.694531 0.23564,-0.241846 0.68213,-0.241846 0.45268,0 0.68833,0.254248 0.23564,0.248047 0.23564,0.682129 0,0.440284 -0.24185,0.700733 -0.23564,0.254248 -0.68212,0.254248 -0.44649,0 -0.68213,-0.254248 -0.23565,-0.254248 -0.23565,-0.700733 z"
       id="path974" />
    <path
       d="m 159.48961,45.731506 q 0,1.209228 -0.87437,1.897558 -0.87436,0.68833 -2.41225,0.68833 -1.53789,0 -2.51768,-0.47749 v -1.401465 q 0.62012,0.291455 1.31465,0.458887 0.70073,0.167432 1.30224,0.167432 0.88057,0 1.29605,-0.334864 0.42168,-0.334863 0.42168,-0.89917 0,-0.508496 -0.38447,-0.861963 -0.38448,-0.353466 -1.5875,-0.837158 -1.24024,-0.502295 -1.74873,-1.147216 -0.5085,-0.644922 -0.5085,-1.550293 0,-1.134815 0.80615,-1.785938 0.80615,-0.651123 2.16421,-0.651123 1.30225,0 2.59209,0.570508 l -0.47129,1.209228 q -1.20923,-0.508496 -2.15801,-0.508496 -0.71933,0 -1.0914,0.31626 -0.37207,0.310059 -0.37207,0.824756 0,0.353467 0.14883,0.607715 0.14882,0.248047 0.48989,0.471289 0.34106,0.223242 1.22783,0.589111 0.99839,0.415479 1.46348,0.775147 0.46509,0.359668 0.68213,0.812353 0.21704,0.452686 0.21704,1.066602 z"
       id="path976" />
    <path
       d="m 167.17286,44.75172 q 0,1.680518 -0.86196,2.623096 -0.86197,0.942578 -2.39986,0.942578 -0.96118,0 -1.69912,-0.434082 -0.73794,-0.434082 -1.13481,-1.246435 -0.39688,-0.812354 -0.39688,-1.885157 0,-1.668115 0.85577,-2.604492 0.85576,-0.936377 2.41225,-0.936377 1.48828,0 2.35645,0.961182 0.86816,0.95498 0.86816,2.579687 z m -4.99194,0 q 0,2.375049 1.75493,2.375049 1.73633,0 1.73633,-2.375049 0,-2.350244 -1.74873,-2.350244 -0.91778,0 -1.33326,0.607715 -0.40927,0.607715 -0.40927,1.742529 z"
       id="path978" />
    <path
       d="m 170.30445,48.193371 h -1.45727 v -9.649023 h 1.45727 z"
       id="path980" />
    <path
       d="m 177.22496,48.193371 -0.20464,-0.89917 h -0.0744 q -0.30386,0.47749 -0.86816,0.750342 -0.55811,0.272851 -1.27744,0.272851 -1.24644,0 -1.86036,-0.620117 -0.61391,-0.620117 -0.61391,-1.878955 v -4.483447 h 1.46968 v 4.229199 q 0,0.787549 0.32246,1.184424 0.32246,0.390674 1.01079,0.390674 0.91777,0 1.34565,-0.545704 0.43408,-0.551904 0.43408,-1.841748 v -3.416845 h 1.46348 v 6.858496 z"
       id="path982" />
    <path
       d="m 183.00446,47.139172 q 0.5333,0 1.0666,-0.167432 v 1.097607 q -0.24185,0.10542 -0.62632,0.173633 -0.37827,0.07441 -0.78755,0.07441 -2.07119,0 -2.07119,-2.182812 v -3.695899 h -0.93638 v -0.644921 l 1.00459,-0.533301 0.4961,-1.451074 h 0.89917 v 1.525488 h 1.95336 v 1.103808 h -1.95336 v 3.671094 q 0,0.5271 0.26044,0.781348 0.26665,0.248047 0.69454,0.248047 z"
       id="path984" />
    <path
       d="m 186.89879,48.193371 h -1.45727 v -6.858496 h 1.45727 z m -1.54409,-8.67544 q 0,-0.390673 0.21084,-0.601513 0.21704,-0.21084 0.61392,-0.21084 0.38447,0 0.59531,0.21084 0.21704,0.21084 0.21704,0.601513 0,0.372071 -0.21704,0.589112 -0.21084,0.21084 -0.59531,0.21084 -0.39688,0 -0.61392,-0.21084 -0.21084,-0.217041 -0.21084,-0.589112 z"
       id="path986" />
    <path
       d="m 195.06573,44.75172 q 0,1.680518 -0.86196,2.623096 -0.86197,0.942578 -2.39986,0.942578 -0.96118,0 -1.69912,-0.434082 -0.73794,-0.434082 -1.13481,-1.246435 -0.39688,-0.812354 -0.39688,-1.885157 0,-1.668115 0.85576,-2.604492 0.85577,-0.936377 2.41226,-0.936377 1.48828,0 2.35644,0.961182 0.86817,0.95498 0.86817,2.579687 z m -4.99194,0 q 0,2.375049 1.75493,2.375049 1.73633,0 1.73633,-2.375049 0,-2.350244 -1.74874,-2.350244 -0.91777,0 -1.33325,0.607715 -0.40927,0.607715 -0.40927,1.742529 z"
       id="path988" />
    <path
       d="m 202.77379,48.193371 h -1.46347 v -4.216797 q 0,-0.79375 -0.32246,-1.184424 -0.31626,-0.390674 -1.01079,-0.390674 -0.92398,0 -1.35186,0.545703 -0.42788,0.545704 -0.42788,1.829346 v 3.416846 h -1.45728 v -6.858496 h 1.14102 l 0.20464,0.89917 h 0.0744 q 0.31006,-0.489893 0.88057,-0.756543 0.57051,-0.266651 1.26504,-0.266651 2.46806,0 2.46806,2.511475 z"
       id="path990" />
    <path
       d="m 209.40905,46.240002 q 0,1.00459 -0.73174,1.544091 -0.73174,0.533301 -2.096,0.533301 -1.37045,0 -2.20141,-0.415478 v -1.258838 q 1.20923,0.558105 2.25102,0.558105 1.34566,0 1.34566,-0.812353 0,-0.260449 -0.14883,-0.434082 -0.14883,-0.173633 -0.48989,-0.359668 -0.34107,-0.186035 -0.94878,-0.42168 -1.18443,-0.458887 -1.60611,-0.917773 -0.41547,-0.458887 -0.41547,-1.190625 0,-0.880567 0.70693,-1.364258 0.71313,-0.489893 1.93476,-0.489893 1.20923,0 2.28824,0.489893 l -0.47129,1.097607 q -1.11001,-0.458886 -1.86655,-0.458886 -1.15342,0 -1.15342,0.657324 0,0.322461 0.29765,0.545703 0.30386,0.223242 1.31465,0.613916 0.84956,0.328662 1.23404,0.601514 0.38447,0.272851 0.5705,0.632519 0.18604,0.353467 0.18604,0.849561 z"
       id="path992" />
  </g>
  <path
     id="rect2627-2-0-7-4"
     style="fill:#96c8ed;fill-opacity:1;stroke:#9c9c9c;stroke-width:0.203749;stroke-linecap:square;stroke-linejoin:round;stroke-miterlimit:10;stroke-dasharray:none;stroke-opacity:0;paint-order:stroke markers fill"
     d="m 16.692337,22.072476 v 0 l -3.999753,-6.92754 h 7.999507 z" />
  <path
     id="rect2627-10-9-4"
     style="fill:#2f6bb2;fill-opacity:1;stroke:#9c9c9c;stroke-width:0.203749;stroke-linecap:square;stroke-linejoin:round;stroke-miterlimit:10;stroke-dasharray:none;stroke-opacity:0;paint-order:stroke markers fill"
     d="m 12.692583,29.000006 v 0 l 3.999753,6.92753 H 8.6928278 Z" />
  <path
     id="rect2627-6-6-7-8"
     style="fill:#2a4495;fill-opacity:1;stroke:#9c9c9c;stroke-width:0.203749;stroke-linecap:square;stroke-linejoin:round;stroke-miterlimit:10;stroke-dasharray:none;stroke-opacity:0;paint-order:stroke markers fill"
     d="m 12.692582,42.855064 v 0 l 3.999754,-6.927528 -1e-6,13.855058 z" />
  <path
     id="rect2627-6-5-1-4-9"
     style="fill:#2a4495;fill-opacity:1;stroke:#9c9c9c;stroke-width:0.203749;stroke-linecap:square;stroke-linejoin:round;stroke-miterlimit:10;stroke-dasharray:none;stroke-opacity:0;paint-order:stroke markers fill"
     d="m 33.392099,42.855054 v 0 l 3.999754,-6.927528 v 13.855068 z" />
  <path
     id="rect2627-6-5-5-4-3-2"
     style="fill:#5794cf;fill-opacity:1;stroke:#9c9c9c;stroke-width:0.203749;stroke-linecap:square;stroke-linejoin:round;stroke-miterlimit:10;stroke-dasharray:none;stroke-opacity:0;paint-order:stroke markers fill"
     d="m 33.392099,28.999996 v 0 l 3.999754,-6.92753 v 13.85506 z" />
  <path
     id="rect2627-6-3-5-4-2"
     style="fill:#5794cf;fill-opacity:1;stroke:#9c9c9c;stroke-width:0.203749;stroke-linecap:square;stroke-linejoin:round;stroke-miterlimit:10;stroke-dasharray:none;stroke-opacity:0;paint-order:stroke markers fill"
     d="m 12.692583,29.000006 v 0 l 3.999754,-6.92753 -10e-7,13.85506 z" />
  <path
     id="rect2627-6-0-9-1-4"
     style="fill:#2a4495;fill-opacity:1;stroke:#9c9c9c;stroke-width:0.203749;stroke-linecap:square;stroke-linejoin:round;stroke-miterlimit:10;stroke-dasharray:none;stroke-opacity:0;paint-order:stroke markers fill"
     d="m 12.692582,42.855064 v 0 l -3.9997552,6.92753 V 35.927536 Z" />
  <path
     id="rect2627-6-0-8-6-6-4"
     style="fill:#5794cf;fill-opacity:1;stroke:#9c9c9c;stroke-width:0.203749;stroke-linecap:square;stroke-linejoin:round;stroke-miterlimit:10;stroke-dasharray:none;stroke-opacity:0;paint-order:stroke markers fill"
     d="m 12.692583,29.000006 v 0 l -3.9997552,6.92753 v -13.85506 z" />
  <path
     id="rect2627-6-0-8-4-8-0-0"
     style="fill:#5794cf;fill-opacity:1;stroke:#9c9c9c;stroke-width:0.203749;stroke-linecap:square;stroke-linejoin:round;stroke-miterlimit:10;stroke-dasharray:none;stroke-opacity:0;paint-order:stroke markers fill"
     d="m 33.392099,28.999996 v 0 l -3.999754,6.92753 v -13.85506 z" />
  <path
     id="rect2627-6-5-5-4-3-2-6"
     style="fill:#c2e5fa;fill-opacity:1;stroke:#9c9c9c;stroke-width:0.203749;stroke-linecap:square;stroke-linejoin:round;stroke-miterlimit:10;stroke-dasharray:none;stroke-opacity:0;paint-order:stroke markers fill"
     d="m 33.39209,15.144936 v 0 L 37.391844,8.2174061 V 22.072466 Z" />
  <path
     id="rect2627-6-0-8-4-8-0-0-7"
     style="fill:#c2e5fa;fill-opacity:1;stroke:#9c9c9c;stroke-width:0.203749;stroke-linecap:square;stroke-linejoin:round;stroke-miterlimit:10;stroke-dasharray:none;stroke-opacity:0;paint-order:stroke markers fill"
     d="m 33.39209,15.144936 v 0 l -3.999754,6.92753 V 8.2174061 Z" />
  <path
     id="rect2627-6-0-8-2-4-5-8"
     style="fill:#96c8ed;fill-opacity:1;stroke:#9c9c9c;stroke-width:0.203749;stroke-linecap:square;stroke-linejoin:round;stroke-miterlimit:10;stroke-dasharray:none;stroke-opacity:0;paint-order:stroke markers fill"
     d="m 12.692584,15.144936 v 0 l -3.9997562,6.92754 V 8.2174061 Z" />
  <path
     id="rect2627-1-87-3-5"
     style="fill:#87badf;fill-opacity:1;stroke:#9c9c9c;stroke-width:0.203749;stroke-linecap:square;stroke-linejoin:round;stroke-miterlimit:10;stroke-dasharray:none;stroke-opacity:0;paint-order:stroke markers fill"
     d="m 12.692584,15.144936 v 0 l 3.999753,6.92754 H 8.6928298 Z" />
  <path
     id="rect2627-1-8-1-1-5"
     style="fill:#96c8ed;fill-opacity:1;stroke:#9c9c9c;stroke-width:0.203749;stroke-linecap:square;stroke-linejoin:round;stroke-miterlimit:10;stroke-dasharray:none;stroke-opacity:0;paint-order:stroke markers fill"
     d="m 16.692337,8.2174061 v 0 l 3.999754,6.9275299 h -7.999507 z" />
  <path
     id="rect2627-1-7-5-6-9"
     style="fill:#87badf;fill-opacity:1;stroke:#9c9c9c;stroke-width:0.203749;stroke-linecap:square;stroke-linejoin:round;stroke-miterlimit:10;stroke-dasharray:none;stroke-opacity:0;paint-order:stroke markers fill"
     d="m 20.692091,15.144936 v 0 l 3.999753,6.92754 h -7.999507 z" />
  <path
     id="rect2627-7-0-0-8"
     style="fill:#472775;fill-opacity:1;stroke:#9c9c9c;stroke-width:0.203749;stroke-linecap:square;stroke-linejoin:round;stroke-miterlimit:10;stroke-dasharray:none;stroke-opacity:0;paint-order:stroke markers fill"
     d="m 12.692582,42.855064 v 0 l 3.999753,6.92753 H 8.6928278 Z" />
  <path
     id="rect2627-7-9-26-5-7"
     style="fill:#472775;fill-opacity:1;stroke:#9c9c9c;stroke-width:0.203749;stroke-linecap:square;stroke-linejoin:round;stroke-miterlimit:10;stroke-dasharray:none;stroke-opacity:0;paint-order:stroke markers fill"
     d="m 33.392099,42.855054 v 0 l 3.999754,6.92754 h -7.999506 z" />
  <path
     id="rect2627-7-9-2-0-1-0"
     style="fill:#5794cf;fill-opacity:1;stroke:#9c9c9c;stroke-width:0.203749;stroke-linecap:square;stroke-linejoin:round;stroke-miterlimit:10;stroke-dasharray:none;stroke-opacity:0;paint-order:stroke markers fill"
     d="m 25.392591,28.999996 v 0 l 3.999756,6.92753 h -7.999508 z" />
  <path
     id="rect2627-7-9-8-8-5-5"
     style="fill:#2f6bb2;fill-opacity:1;stroke:#9c9c9c;stroke-width:0.203749;stroke-linecap:square;stroke-linejoin:round;stroke-miterlimit:10;stroke-dasharray:none;stroke-opacity:0;paint-order:stroke markers fill"
     d="m 33.392099,28.999996 v 0 l 3.999754,6.92753 h -7.999506 z" />
  <path
     id="rect2627-7-9-8-7-0-6-7"
     style="fill:#2a4495;fill-opacity:1;stroke:#9c9c9c;stroke-width:0;stroke-linecap:square;stroke-linejoin:round;stroke-miterlimit:10;stroke-dasharray:none;stroke-opacity:0;paint-order:fill markers stroke"
     d="m 29.392345,35.927526 v 0 l 3.999754,6.927528 h -7.999507 z" />
  <path
     id="rect2627-2-7-6-7"
     style="fill:#87badf;fill-opacity:1;stroke:#9c9c9c;stroke-width:0.203749;stroke-linecap:square;stroke-linejoin:round;stroke-miterlimit:10;stroke-dasharray:none;stroke-opacity:0;paint-order:stroke markers fill"
     d="m 12.692583,29.000006 v 0 l -3.9997532,-6.92753 h 7.9995072 z" />
  <path
     id="rect2627-2-0-08-0-4-5"
     style="fill:#5794cf;fill-opacity:1;stroke:#9c9c9c;stroke-width:0.203749;stroke-linecap:square;stroke-linejoin:round;stroke-miterlimit:10;stroke-dasharray:none;stroke-opacity:0;paint-order:stroke markers fill"
     d="m 20.69209,29.000006 v 0 l -3.999753,-6.92753 h 7.999507 z" />
  <path
     id="rect2627-2-0-0-2-3-8"
     style="fill:#c2e5fa;fill-opacity:1;stroke:#9c9c9c;stroke-width:0.203749;stroke-linecap:square;stroke-linejoin:round;stroke-miterlimit:10;stroke-dasharray:none;stroke-opacity:0;paint-order:stroke markers fill"
     d="m 12.692582,15.144936 v 0 L 8.6928278,8.2174061 h 7.9995082 z" />
  <path
     id="rect2627-2-3-3-4-7"
     style="fill:#2f6bb2;fill-opacity:1;stroke:#9c9c9c;stroke-width:0.203749;stroke-linecap:square;stroke-linejoin:round;stroke-miterlimit:10;stroke-dasharray:none;stroke-opacity:0;paint-order:stroke markers fill"
     d="m 12.692582,42.855064 v 0 L 8.6928278,35.927536 h 7.9995082 z" />
  <path
     id="rect2627-2-3-0-45-7-6"
     style="fill:#2a4495;fill-opacity:1;stroke:#9c9c9c;stroke-width:0;stroke-linecap:square;stroke-linejoin:round;stroke-miterlimit:10;stroke-dasharray:none;stroke-opacity:0;paint-order:fill markers stroke"
     d="m 29.392345,49.782594 v 0 l -3.999753,-6.92754 h 7.999507 z" />
  <path
     id="rect2627-2-3-0-4-2-8-3"
     style="fill:#2f6bb2;fill-opacity:1;stroke:#9c9c9c;stroke-width:0.203749;stroke-linecap:square;stroke-linejoin:round;stroke-miterlimit:10;stroke-dasharray:none;stroke-opacity:0;paint-order:stroke markers fill"
     d="m 33.392099,42.855054 v 0 l -3.999752,-6.927528 h 7.999506 z" />
  <path
     id="rect2627-2-3-0-4-1-4-9-7"
     style="fill:#87badf;fill-opacity:1;stroke:#9c9c9c;stroke-width:0.203749;stroke-linecap:square;stroke-linejoin:round;stroke-miterlimit:10;stroke-dasharray:none;stroke-opacity:0;paint-order:stroke markers fill"
     d="m 33.392099,28.999996 v 0 l -3.999752,-6.92753 h 7.999506 z" />
  <path
     id="rect2627-2-3-0-4-1-4-9-7-0"
     style="fill:#96c8ed;fill-opacity:1;stroke:#9c9c9c;stroke-width:0.203749;stroke-linecap:square;stroke-linejoin:round;stroke-miterlimit:10;stroke-dasharray:none;stroke-opacity:0;paint-order:stroke markers fill"
     d="m 33.392103,15.144936 v 0 l 3.99975,6.92753 h -7.99951 z" />
  <path
     id="rect2627-2-3-0-4-1-4-9-7-0-63"
     style="fill:#d0edff;fill-opacity:1;stroke:#9c9c9c;stroke-width:0.203749;stroke-linecap:square;stroke-linejoin:round;stroke-miterlimit:10;stroke-dasharray:none;stroke-opacity:0;paint-order:stroke markers fill"
     d="m 33.39209,15.144936 v 0 L 29.39234,8.2174061 h 7.99951 z" />
  <path
     id="rect2627-2-3-0-4-1-3-7-0-9"
     style="fill:#2f6bb2;fill-opacity:1;stroke:#9c9c9c;stroke-width:0;stroke-linecap:square;stroke-linejoin:round;stroke-miterlimit:10;stroke-dasharray:none;stroke-opacity:0;paint-order:fill markers stroke"
     d="m 25.392591,42.855054 v 0 l -3.999752,-6.927528 h 7.999508 z" />
</svg>
