<?xml version="1.0" encoding="UTF-8" standalone="no"?>
<svg
   width="260"
   height="80"
   version="1.1"
   id="svg145"
   xmlns="http://www.w3.org/2000/svg"
   xmlns:svg="http://www.w3.org/2000/svg">
  <defs
     id="defs149" />
  <g
     aria-label="typecast"
     id="g143">
    <g
       transform="matrix(.97656 0 0 .97656 -1.2605 .11719)"
       id="g141">
      <path
         d="m5 18.653v6.4h6.4v32.853h6.8267v-32.853h6.4v-6.4h-6.4v-13.653h-6.8267v13.653z"
         fill="#f58605"
         id="path125" />
      <path
         d="m59.36 18.653h-7.68l-10.752 27.051-11.008-27.051h-8.1067l15.019 33.707-10.752 24.32h7.68z"
         fill="#f58605"
         id="path127" />
      <path
         d="m64.86 76.68v-25.515c2.9013 4.864 7.5947 7.5947 13.397 7.5947 10.667 0 19.456-7.7653 19.456-20.48 0-12.715-8.7893-20.48-19.456-20.48-5.8027 0-10.496 2.7307-13.397 7.5947v-6.7413h-6.8267v58.027zm25.941-38.4c0 9.0453-6.144 14.08-13.397 14.08-5.9733 0-12.544-5.0347-12.544-14.08 0-9.0453 6.5707-14.08 12.544-14.08 7.2533 0 13.397 5.0347 13.397 14.08z"
         fill="#f58f05"
         id="path129" />
      <path
         d="m134.95 48.776-5.5467-3.4987c-2.6453 4.2667-6.5707 7.0827-12.288 7.0827-7.168 0-11.861-4.4373-12.459-12.373h30.891c0.0853-0.68267 0.0853-1.3653 0.0853-2.048 0-12.373-7.424-20.139-18.517-20.139-10.155 0-17.493 6.656-19.115 16.299-0.256 1.3653-0.34133 2.7307-0.34133 4.1813 0 11.861 7.936 20.48 18.603 20.48 10.155 0 14.763-4.0107 18.688-9.984zm-17.835-25.003c6.8267 0 10.411 4.2667 11.093 10.411h-23.381c0.768-6.4853 5.9733-10.411 12.288-10.411z"
         fill="#f59804"
         id="path131" />
      <path
         d="m144.04 38.28c0-9.472 6.7413-16.299 15.616-16.299 6.3147 0 11.691 3.2427 13.483 6.4v-5.5467c-2.3893-2.7307-7.7653-5.0347-13.483-5.0347-11.435 0-20.139 8.6187-20.139 20.48 0 11.861 8.704 20.48 20.139 20.48 5.7173 0 11.093-2.2187 13.483-5.0347v-5.5467c-1.792 3.1573-7.168 6.4-13.483 6.4-8.8747 0-15.616-6.8267-15.616-16.299z"
         fill="#f5a103"
         id="path133" />
      <path
         d="m184.28 26.419c2.3893-2.048 6.4853-4.6933 12.117-4.6933 5.376 0 9.1307 3.072 9.1307 8.3627v6.7413c-2.048-1.4507-5.5467-3.1573-10.667-3.1573-9.3013 0-16.213 4.608-16.213 12.885 0 8.3627 6.3147 12.203 13.312 12.203 6.4 0 11.52-3.1573 13.568-8.0213v7.168h4.4373v-27.819c0-7.5947-5.12-12.288-13.568-12.288-6.7413 0-11.435 2.9013-14.336 5.2053zm-1.1093 19.968c0-5.9733 4.9493-9.216 11.861-9.216 4.352 0 7.68 1.024 10.496 2.7307v3.328c0 7.3387-5.376 11.52-12.544 11.52-5.12 0-9.8133-2.4747-9.8133-8.3627z"
         fill="#f5aa02"
         id="path135" />
      <path
         d="m219.66 44.595-3.584 2.1333c2.2187 6.4 7.168 12.032 15.104 12.032 7.2533 0 12.715-3.7547 12.715-11.52 0-6.4-5.376-9.3013-10.923-11.349-5.0347-1.792-10.155-3.072-10.155-8.1067 0-4.096 3.4987-5.8027 7.7653-5.8027 4.352 0 7.68 2.9013 9.3867 6.144l3.6693-2.2187c-2.048-4.352-6.656-8.0213-13.056-8.0213-6.3147 0-12.117 3.2427-12.117 10.069 0 7.424 5.4613 9.3013 11.179 11.264 5.0347 1.792 9.6427 3.7547 9.6427 8.5333 0 4.4373-3.4133 6.8267-8.1067 6.8267-5.5467 0-9.3867-4.6933-11.52-9.984z"
         fill="#f5b302"
         id="path137" />
      <path
         d="m246.58 18.653v4.1813h6.4v35.072h4.4373v-35.072h6.4v-4.1813h-6.4v-13.653h-4.4373v13.653z"
         fill="#f5bc01"
         id="path139" />
    </g>
  </g>
</svg>
